<?xml version="1.0" encoding="UTF-8" standalone="no"?>
<svg xmlns="http://www.w3.org/2000/svg" xml:space="preserve" viewBox="0 0 47.5 47.5">
  <defs>
    <clipPath id="a">
      <path d="M0 38h38V0H0v38z"/>
    </clipPath>
  </defs>
  <g clip-path="url(#a)" transform="matrix(1.25 0 0 -1.25 0 47.5)">
    <path fill="#292f33" d="M19 1C9.059 1 1 9.059 1 19s8.059 18 18 18 18-8.059 18-18S28.94 1 19 1"/>
    <path fill="#e1e8ed" d="M28 19c0-4.971-4.029-9-9-9s-9 4.029-9 9 4.029 9 9 9 9-4.029 9-9"/>
    <path fill="#292f33" d="M17.7793 22.0703c0-.791.457-1.336 1.266-1.336.808 0 1.283.545 1.283 1.336 0 .756-.457 1.336-1.283 1.336-.827 0-1.266-.58-1.266-1.336m-.334-5.098c0-.896.527-1.757 1.6-1.757 1.002 0 1.599.861 1.599 1.757 0 1.108-.633 1.758-1.599 1.758-1.02 0-1.6-.773-1.6-1.758m-2.742-.175c0 1.406.773 2.443 1.881 3.041-.826.597-1.336 1.406-1.336 2.513 0 2.057 1.705 3.375 3.797 3.375 2.039 0 3.814-1.301 3.814-3.375 0-.984-.492-1.968-1.353-2.513 1.195-.598 1.88-1.688 1.88-3.041 0-2.444-1.986-4.008-4.341-4.008-2.426 0-4.342 1.652-4.342 4.008"/>
  </g>
</svg>